<svg width="31" height="31" viewBox="0 0 31 31" fill="none" xmlns="http://www.w3.org/2000/svg">
<g clip-path="url(#clip0_8396_852)">
<g clip-path="url(#clip1_8396_852)">
<path d="M29.8788 14.1202C29.6825 12.6064 28.1063 11.5702 26.5975 12.1352C26.0325 12.3489 25.3525 12.0314 25.0975 11.4614C24.7925 10.7814 24.4188 10.1302 23.9838 9.5252C23.5963 8.98643 23.67 8.28143 24.1513 7.88393C24.7263 7.41143 25.0475 6.7127 25.0325 5.96891C25.0175 5.21264 24.6613 4.51643 24.055 4.05641C23.0575 3.30143 21.97 2.67266 20.8213 2.18891C20.5113 2.05889 20.1863 1.99268 19.855 1.99268C18.6575 1.99268 17.6475 2.84393 17.4525 4.01645C17.35 4.63268 16.7663 5.05145 16.1088 4.9802C15.3787 4.90268 14.6188 4.90268 13.89 4.9802C13.235 5.05145 12.6488 4.63268 12.5463 4.01645C12.3513 2.84393 11.3413 1.99268 10.1437 1.99268C9.81252 1.99268 9.4875 2.05895 9.17877 2.18891C8.02875 2.67266 6.94125 3.30014 5.94375 4.05641C5.33877 4.51643 4.98252 5.21264 4.96752 5.96768C4.95252 6.7127 5.27379 7.4102 5.84877 7.88516C6.33129 8.28143 6.40254 8.98643 6.01629 9.52391C5.58129 10.1289 5.20629 10.7802 4.90131 11.4601C4.64631 12.0301 4.01631 12.3651 3.38754 12.1289C3.11256 12.0264 2.82627 11.9739 2.53629 11.9739C1.31631 11.9739 0.278789 12.8964 0.120059 14.1201C0.04125 14.7402 0 15.3739 0 16.0002C0 16.6264 0.04125 17.2602 0.12123 17.8801C0.31623 19.3926 1.89123 20.4289 3.40248 19.8651C3.96621 19.6514 4.64748 19.9689 4.90248 20.5389C5.20746 21.2189 5.58123 21.8701 6.01623 22.4751C6.40371 23.0139 6.33 23.7189 5.84871 24.1164C5.27373 24.5889 4.95246 25.2876 4.96746 26.0314C4.98246 26.7877 5.33871 27.4839 5.94498 27.9439C6.94248 28.6989 8.02998 29.3277 9.17871 29.8114C9.48873 29.9414 9.81369 30.0076 10.145 30.0076C11.3425 30.0076 12.3525 29.1564 12.5475 27.9839C12.65 27.3676 13.235 26.9551 13.8912 27.0201C14.62 27.0976 15.38 27.0976 16.11 27.0201C16.7675 26.9539 17.3513 27.3676 17.4537 27.9839C17.6487 29.1564 18.6587 30.0064 19.8563 30.0076C20.1875 30.0076 20.5125 29.9414 20.8212 29.8114C21.97 29.3277 23.0588 28.7002 24.055 27.9439C24.6599 27.4839 25.0175 26.7877 25.0325 26.0326C25.0475 25.2876 24.7262 24.5901 24.1512 24.1152C23.6687 23.7189 23.5975 23.0139 23.9837 22.4764C24.4187 21.8714 24.7937 21.2202 25.0987 20.5402C25.3537 19.9689 25.9849 19.6352 26.6125 19.8714C26.8874 19.9752 27.1737 20.0277 27.4637 20.0277C28.6837 20.0277 29.7212 19.1052 29.8799 17.8815C29.9587 17.2539 30 16.6227 30 16.0002C30 15.3777 29.9587 14.7464 29.8788 14.1202ZM15 21.0001C12.2425 21.0001 10 18.7576 10 16.0002C10 13.2427 12.2425 11.0002 15 11.0002C17.7575 11.0002 20 13.2427 20 16.0002C20 18.7576 17.7575 21.0001 15 21.0001Z" fill="#F5BB63"/>
</g>
</g>
<defs>
<clipPath id="clip0_8396_852">
<rect width="30" height="30" fill="white" transform="translate(0.5 0.5)"/>
</clipPath>
<clipPath id="clip1_8396_852">
<rect width="30" height="30" fill="white" transform="translate(0 1)"/>
</clipPath>
</defs>
</svg>
