<svg width="31" height="31" viewBox="0 0 31 31" fill="none" xmlns="http://www.w3.org/2000/svg">
<g clip-path="url(#clip0_8396_365)">
<path d="M25.6693 17.0149H23.3492C23.5857 17.6624 23.7149 18.3611 23.7149 19.0893V27.8579C23.7149 28.1616 23.6621 28.453 23.5659 28.7241H27.4015C28.8343 28.7241 29.9999 27.5584 29.9999 26.1257V21.3455C30 18.9576 28.0572 17.0149 25.6693 17.0149Z" fill="#F3AA3C"/>
<path d="M6.28507 19.0893C6.28507 18.361 6.41427 17.6624 6.65075 17.0149H4.33067C1.94274 17.0149 0 18.9576 0 21.3456V26.1257C0 27.5584 1.16561 28.7241 2.5984 28.7241H6.43407C6.33792 28.4529 6.28507 28.1616 6.28507 27.8579V19.0893Z" fill="#F3AA3C"/>
<path d="M17.652 14.7588H12.348C9.96007 14.7588 8.01733 16.7015 8.01733 19.0895V27.858C8.01733 28.3363 8.40511 28.7242 8.88347 28.7242H21.1166C21.5949 28.7242 21.9827 28.3364 21.9827 27.858V19.0895C21.9827 16.7015 20.04 14.7588 17.652 14.7588Z" fill="#F3AA3C"/>
<path d="M15 3.27563C12.1282 3.27563 9.79187 5.61201 9.79187 8.48387C9.79187 10.4318 10.867 12.1331 12.4548 13.0263C13.2079 13.4499 14.0761 13.692 15 13.692C15.9239 13.692 16.7922 13.4499 17.5453 13.0263C19.1331 12.1331 20.2082 10.4318 20.2082 8.48387C20.2082 5.61206 17.8718 3.27563 15 3.27563Z" fill="#F3AA3C"/>
<path d="M5.8545 8.13037C3.70674 8.13037 1.95947 9.87764 1.95947 12.0254C1.95947 14.1732 3.70674 15.9204 5.8545 15.9204C6.39931 15.9204 6.9181 15.8076 7.38937 15.6047C8.20417 15.2539 8.87601 14.6329 9.29173 13.8551C9.58353 13.3092 9.74953 12.6864 9.74953 12.0254C9.74953 9.8777 8.00226 8.13037 5.8545 8.13037Z" fill="#F3AA3C"/>
<path d="M24.1455 8.13037C21.9978 8.13037 20.2505 9.87764 20.2505 12.0254C20.2505 12.6865 20.4165 13.3092 20.7083 13.8551C21.124 14.633 21.7958 15.254 22.6106 15.6047C23.0819 15.8076 23.6007 15.9204 24.1455 15.9204C26.2933 15.9204 28.0405 14.1732 28.0405 12.0254C28.0405 9.87764 26.2933 8.13037 24.1455 8.13037Z" fill="#F3AA3C"/>
</g>
<defs>
<clipPath id="clip0_8396_365">
<rect width="30" height="30" fill="white" transform="translate(0.5 0.5)"/>
</clipPath>
</defs>
</svg>
