<svg width="578" height="76" viewBox="0 0 578 76" fill="none" xmlns="http://www.w3.org/2000/svg">
<g clip-path="url(#clip0_831_6691)">
<path d="M12.9492 22H1.04297V19.4219L6.52734 13.6562C7.87891 12.1172 8.55469 10.8945 8.55469 9.98828C8.55469 9.25391 8.39453 8.69531 8.07422 8.3125C7.75391 7.92969 7.28906 7.73828 6.67969 7.73828C6.07812 7.73828 5.58984 7.99609 5.21484 8.51172C4.83984 9.01953 4.65234 9.65625 4.65234 10.4219H0.691406C0.691406 9.375 0.953125 8.41016 1.47656 7.52734C2 6.63672 2.72656 5.94141 3.65625 5.44141C4.58594 4.94141 5.625 4.69141 6.77344 4.69141C8.61719 4.69141 10.0352 5.11719 11.0273 5.96875C12.0273 6.82031 12.5273 8.04297 12.5273 9.63672C12.5273 10.3086 12.4023 10.9648 12.1523 11.6055C11.9023 12.2383 11.5117 12.9062 10.9805 13.6094C10.457 14.3047 9.60938 15.2383 8.4375 16.4102L6.23438 18.9531H12.9492V22ZM26.8008 7.04688L20.4258 22H16.2539L22.6406 7.98438H14.5078V4.9375H26.8008V7.04688ZM40.6875 15.0273C40.6875 17.332 40.168 19.1094 39.1289 20.3594C38.0977 21.6094 36.6406 22.2344 34.7578 22.2344C32.8594 22.2344 31.3906 21.6055 30.3516 20.3477C29.3125 19.0898 28.793 17.3164 28.793 15.0273V11.9102C28.793 9.60547 29.3086 7.82813 30.3398 6.57812C31.3789 5.32812 32.8438 4.70312 34.7344 4.70312C36.625 4.70312 38.0898 5.33203 39.1289 6.58984C40.168 7.84766 40.6875 9.625 40.6875 11.9219V15.0273ZM36.7383 11.4062C36.7383 10.1797 36.5781 9.26562 36.2578 8.66406C35.9375 8.05469 35.4297 7.75 34.7344 7.75C34.0547 7.75 33.5586 8.03125 33.2461 8.59375C32.9414 9.15625 32.7773 10.0078 32.7539 11.1484V15.5078C32.7539 16.7812 32.9141 17.7148 33.2344 18.3086C33.5547 18.8945 34.0625 19.1875 34.7578 19.1875C35.4297 19.1875 35.9258 18.9023 36.2461 18.332C36.5664 17.7539 36.7305 16.8516 36.7383 15.625V11.4062ZM54.5859 15.0273C54.5859 17.332 54.0664 19.1094 53.0273 20.3594C51.9961 21.6094 50.5391 22.2344 48.6562 22.2344C46.7578 22.2344 45.2891 21.6055 44.25 20.3477C43.2109 19.0898 42.6914 17.3164 42.6914 15.0273V11.9102C42.6914 9.60547 43.207 7.82813 44.2383 6.57812C45.2773 5.32812 46.7422 4.70312 48.6328 4.70312C50.5234 4.70312 51.9883 5.33203 53.0273 6.58984C54.0664 7.84766 54.5859 9.625 54.5859 11.9219V15.0273ZM50.6367 11.4062C50.6367 10.1797 50.4766 9.26562 50.1562 8.66406C49.8359 8.05469 49.3281 7.75 48.6328 7.75C47.9531 7.75 47.457 8.03125 47.1445 8.59375C46.8398 9.15625 46.6758 10.0078 46.6523 11.1484V15.5078C46.6523 16.7812 46.8125 17.7148 47.1328 18.3086C47.4531 18.8945 47.9609 19.1875 48.6562 19.1875C49.3281 19.1875 49.8242 18.9023 50.1445 18.332C50.4648 17.7539 50.6289 16.8516 50.6367 15.625V11.4062ZM68.4844 15.0273C68.4844 17.332 67.9648 19.1094 66.9258 20.3594C65.8945 21.6094 64.4375 22.2344 62.5547 22.2344C60.6562 22.2344 59.1875 21.6055 58.1484 20.3477C57.1094 19.0898 56.5898 17.3164 56.5898 15.0273V11.9102C56.5898 9.60547 57.1055 7.82813 58.1367 6.57812C59.1758 5.32812 60.6406 4.70312 62.5312 4.70312C64.4219 4.70312 65.8867 5.33203 66.9258 6.58984C67.9648 7.84766 68.4844 9.625 68.4844 11.9219V15.0273ZM64.5352 11.4062C64.5352 10.1797 64.375 9.26562 64.0547 8.66406C63.7344 8.05469 63.2266 7.75 62.5312 7.75C61.8516 7.75 61.3555 8.03125 61.043 8.59375C60.7383 9.15625 60.5742 10.0078 60.5508 11.1484V15.5078C60.5508 16.7812 60.7109 17.7148 61.0312 18.3086C61.3516 18.8945 61.8594 19.1875 62.5547 19.1875C63.2266 19.1875 63.7227 18.9023 64.043 18.332C64.3633 17.7539 64.5273 16.8516 64.5352 15.625V11.4062ZM83.6953 12.3203H87.6914V15.707H83.6953V20.2891H80.0039V15.707H75.9961V12.3203H80.0039V7.86719H83.6953V12.3203Z" fill="white"/>
<rect y="43" width="92" height="2" fill="#F3AA3C"/>
<path d="M6.45312 66.6289H3.97168V73H2.70703V66.6289H0.273438V65.6035H6.45312V66.6289ZM7.06152 69.2334C7.06152 68.5088 7.2028 67.8571 7.48535 67.2783C7.77246 66.6995 8.16895 66.2529 8.6748 65.9385C9.18522 65.624 9.76628 65.4668 10.418 65.4668C11.4251 65.4668 12.2386 65.8154 12.8584 66.5127C13.4827 67.21 13.7949 68.1374 13.7949 69.2949V69.3838C13.7949 70.1038 13.6559 70.751 13.3779 71.3252C13.1045 71.8949 12.7103 72.3392 12.1953 72.6582C11.6849 72.9772 11.097 73.1367 10.4316 73.1367C9.42904 73.1367 8.61556 72.7881 7.99121 72.0908C7.37142 71.3936 7.06152 70.4707 7.06152 69.3223V69.2334ZM8.33301 69.3838C8.33301 70.2041 8.52214 70.8626 8.90039 71.3594C9.2832 71.8561 9.79362 72.1045 10.4316 72.1045C11.0742 72.1045 11.5846 71.8538 11.9629 71.3525C12.3411 70.8467 12.5303 70.1403 12.5303 69.2334C12.5303 68.4222 12.3366 67.766 11.9492 67.2646C11.5664 66.7588 11.056 66.5059 10.418 66.5059C9.79362 66.5059 9.29004 66.7542 8.90723 67.251C8.52441 67.7477 8.33301 68.4587 8.33301 69.3838ZM15.4971 73V65.6035H18.3818C19.3662 65.6035 20.1204 65.7767 20.6445 66.123C21.1732 66.4648 21.4375 66.9684 21.4375 67.6338C21.4375 67.9756 21.335 68.2855 21.1299 68.5635C20.9248 68.8369 20.6217 69.0465 20.2207 69.1924C20.6673 69.2972 21.0251 69.5023 21.2939 69.8076C21.5674 70.113 21.7041 70.4775 21.7041 70.9014C21.7041 71.5804 21.4535 72.0999 20.9521 72.46C20.4554 72.82 19.7513 73 18.8398 73H15.4971ZM16.7617 69.7529V71.9814H18.8535C19.3822 71.9814 19.7764 71.8835 20.0361 71.6875C20.3005 71.4915 20.4326 71.2158 20.4326 70.8604C20.4326 70.1221 19.8903 69.7529 18.8057 69.7529H16.7617ZM16.7617 68.7412H18.3955C19.5804 68.7412 20.1729 68.3949 20.1729 67.7021C20.1729 67.0094 19.6123 66.6517 18.4912 66.6289H16.7617V68.7412ZM27.9453 73C27.8724 72.8542 27.8132 72.5944 27.7676 72.2207C27.1797 72.8314 26.4779 73.1367 25.6621 73.1367C24.9329 73.1367 24.3337 72.9316 23.8643 72.5215C23.3994 72.1068 23.167 71.5827 23.167 70.9492C23.167 70.179 23.4587 69.582 24.042 69.1582C24.6299 68.7298 25.4548 68.5156 26.5166 68.5156H27.7471V67.9346C27.7471 67.4925 27.6149 67.1416 27.3506 66.8818C27.0863 66.6175 26.6966 66.4854 26.1816 66.4854C25.7305 66.4854 25.3522 66.5993 25.0469 66.8271C24.7415 67.055 24.5889 67.3307 24.5889 67.6543H23.3174C23.3174 67.2852 23.4473 66.9297 23.707 66.5879C23.9714 66.2415 24.3268 65.9681 24.7734 65.7676C25.2246 65.5671 25.7191 65.4668 26.2568 65.4668C27.109 65.4668 27.7767 65.681 28.2598 66.1094C28.7428 66.5332 28.9935 67.1188 29.0117 67.8662V71.2705C29.0117 71.9495 29.0983 72.4896 29.2715 72.8906V73H27.9453ZM25.8467 72.0361C26.2432 72.0361 26.6191 71.9336 26.9746 71.7285C27.3301 71.5234 27.5876 71.2568 27.7471 70.9287V69.4111H26.7559C25.2064 69.4111 24.4316 69.8646 24.4316 70.7715C24.4316 71.168 24.5638 71.4779 24.8281 71.7012C25.0924 71.9245 25.432 72.0361 25.8467 72.0361ZM37.2422 69.3838C37.2422 70.5094 36.9847 71.4163 36.4697 72.1045C35.9548 72.7926 35.2575 73.1367 34.3779 73.1367C33.4801 73.1367 32.7738 72.8519 32.2588 72.2822V75.8438H30.9941V65.6035H32.1494L32.2109 66.4238C32.7259 65.7858 33.4414 65.4668 34.3574 65.4668C35.2461 65.4668 35.9479 65.8018 36.4629 66.4717C36.9824 67.1416 37.2422 68.0736 37.2422 69.2676V69.3838ZM35.9775 69.2402C35.9775 68.4062 35.7998 67.7477 35.4443 67.2646C35.0889 66.7816 34.6012 66.54 33.9814 66.54C33.2158 66.54 32.6416 66.8796 32.2588 67.5586V71.0928C32.637 71.7673 33.2158 72.1045 33.9951 72.1045C34.6012 72.1045 35.082 71.8652 35.4375 71.3867C35.7975 70.9036 35.9775 70.1882 35.9775 69.2402ZM44.8984 73H43.6338V69.8418H40.2363V73H38.9648V65.6035H40.2363V68.8096H43.6338V65.6035H44.8984V73ZM48.3164 68.1533H50.2373C51.0758 68.1624 51.7389 68.3812 52.2266 68.8096C52.7142 69.238 52.958 69.819 52.958 70.5527C52.958 71.291 52.7074 71.8835 52.2061 72.3301C51.7048 72.7767 51.0303 73 50.1826 73H47.0518V65.6035H48.3164V68.1533ZM55.5967 73H54.3252V65.6035H55.5967V73ZM48.3164 69.1855V71.9678H50.1963C50.6702 71.9678 51.0371 71.847 51.2969 71.6055C51.5566 71.3594 51.6865 71.0244 51.6865 70.6006C51.6865 70.1904 51.5589 69.8555 51.3037 69.5957C51.0531 69.3314 50.6999 69.1947 50.2441 69.1855H48.3164ZM60.2861 68.3037L61.9268 65.6035H63.4033L60.9834 69.2607L63.4785 73H62.0156L60.3066 70.2314L58.5977 73H57.1279L59.623 69.2607L57.2031 65.6035H58.666L60.2861 68.3037ZM74.2725 73H73.0078V66.6494H69.6035V73H68.332V65.6035H74.2725V73ZM75.9678 69.2334C75.9678 68.5088 76.109 67.8571 76.3916 67.2783C76.6787 66.6995 77.0752 66.2529 77.5811 65.9385C78.0915 65.624 78.6725 65.4668 79.3242 65.4668C80.3314 65.4668 81.1449 65.8154 81.7646 66.5127C82.389 67.21 82.7012 68.1374 82.7012 69.2949V69.3838C82.7012 70.1038 82.5622 70.751 82.2842 71.3252C82.0107 71.8949 81.6165 72.3392 81.1016 72.6582C80.5911 72.9772 80.0033 73.1367 79.3379 73.1367C78.3353 73.1367 77.5218 72.7881 76.8975 72.0908C76.2777 71.3936 75.9678 70.4707 75.9678 69.3223V69.2334ZM77.2393 69.3838C77.2393 70.2041 77.4284 70.8626 77.8066 71.3594C78.1895 71.8561 78.6999 72.1045 79.3379 72.1045C79.9805 72.1045 80.4909 71.8538 80.8691 71.3525C81.2474 70.8467 81.4365 70.1403 81.4365 69.2334C81.4365 68.4222 81.2428 67.766 80.8555 67.2646C80.4727 66.7588 79.9622 66.5059 79.3242 66.5059C78.6999 66.5059 78.1963 66.7542 77.8135 67.251C77.4307 67.7477 77.2393 68.4587 77.2393 69.3838ZM88.3545 67.627C88.3545 67.2806 88.2223 67.0072 87.958 66.8066C87.6937 66.6016 87.3314 66.499 86.8711 66.499C86.4245 66.499 86.0508 66.6152 85.75 66.8477C85.4538 67.0801 85.3057 67.3535 85.3057 67.668H84.0479C84.0479 67.0254 84.3167 66.499 84.8545 66.0889C85.3923 65.6787 86.0645 65.4736 86.8711 65.4736C87.737 65.4736 88.4115 65.6605 88.8945 66.0342C89.3776 66.4033 89.6191 66.932 89.6191 67.6201C89.6191 67.9528 89.5189 68.2581 89.3184 68.5361C89.1178 68.8141 88.833 69.0352 88.4639 69.1992C89.3252 69.4909 89.7559 70.0651 89.7559 70.9219C89.7559 71.6009 89.4938 72.1387 88.9697 72.5352C88.4456 72.9316 87.7461 73.1299 86.8711 73.1299C86.0189 73.1299 85.3148 72.9225 84.7588 72.5078C84.2074 72.0885 83.9316 71.5234 83.9316 70.8125H85.1895C85.1895 71.1725 85.349 71.4824 85.668 71.7422C85.9915 71.9974 86.3926 72.125 86.8711 72.125C87.3542 72.125 87.7438 72.0133 88.04 71.79C88.3363 71.5667 88.4844 71.2773 88.4844 70.9219C88.4844 70.5072 88.359 70.2109 88.1084 70.0332C87.8623 69.8509 87.4772 69.7598 86.9531 69.7598H85.6885V68.6934H87.0625C87.9238 68.6706 88.3545 68.3151 88.3545 67.627ZM96.1816 65.6035H97.4463V73H96.1816V67.6064L92.7705 73H91.5059V65.6035H92.7705V71.0039L96.1816 65.6035ZM99.5859 65.6035H100.857V71.9678H104.262V65.6035H105.526V71.9678H106.408L106.285 75.1943H105.15V73H99.5859V65.6035ZM112.561 65.6035H113.825V73H112.561V67.6064L109.149 73H107.885V65.6035H109.149V71.0039L112.561 65.6035ZM120.641 65.6035H121.905V73H120.641V67.6064L117.229 73H115.965V65.6035H117.229V71.0039L120.641 65.6035ZM120.982 62.9102C120.982 63.4616 120.793 63.9059 120.415 64.2432C120.041 64.5758 119.549 64.7422 118.938 64.7422C118.328 64.7422 117.833 64.5736 117.455 64.2363C117.077 63.8991 116.888 63.457 116.888 62.9102H117.92C117.92 63.2292 118.007 63.4798 118.18 63.6621C118.353 63.8398 118.606 63.9287 118.938 63.9287C119.257 63.9287 119.506 63.8398 119.684 63.6621C119.866 63.4844 119.957 63.2337 119.957 62.9102H120.982Z" fill="white"/>
</g>
<g clip-path="url(#clip1_831_6691)">
<path d="M228.797 22H224.836V9.39062L220.945 10.5273V7.52734L228.434 4.9375H228.797V22ZM234.176 13.6562L235.219 4.9375H245.191V8.00781H238.43L238.043 11.3945C238.324 11.2305 238.691 11.0859 239.145 10.9609C239.605 10.8359 240.055 10.7734 240.492 10.7734C242.188 10.7734 243.488 11.2773 244.395 12.2852C245.309 13.2852 245.766 14.6914 245.766 16.5039C245.766 17.5977 245.52 18.5898 245.027 19.4805C244.543 20.3633 243.859 21.043 242.977 21.5195C242.094 21.9961 241.051 22.2344 239.848 22.2344C238.777 22.2344 237.773 22.0156 236.836 21.5781C235.898 21.1328 235.164 20.5273 234.633 19.7617C234.102 18.9883 233.84 18.1172 233.848 17.1484H237.809C237.848 17.7734 238.047 18.2695 238.406 18.6367C238.766 19.0039 239.238 19.1875 239.824 19.1875C241.152 19.1875 241.816 18.2031 241.816 16.2344C241.816 14.4141 241.004 13.5039 239.379 13.5039C238.457 13.5039 237.77 13.8008 237.316 14.3945L234.176 13.6562ZM265.207 9.32031V22H261.258V12.3672H258.891L258.68 16.2461C258.531 18.168 258.098 19.6055 257.379 20.5586C256.66 21.5117 255.594 21.9922 254.18 22H252.938L252.891 18.9766L253.301 18.9297C253.824 18.8672 254.211 18.5195 254.461 17.8867C254.719 17.2461 254.883 16.2812 254.953 14.9922L255.199 9.32031H265.207ZM273.492 22.2344C271.547 22.2344 269.973 21.6562 268.77 20.5C267.566 19.3359 266.965 17.8242 266.965 15.9648V15.6367C266.965 14.3398 267.203 13.1953 267.68 12.2031C268.164 11.2109 268.867 10.4453 269.789 9.90625C270.711 9.35938 271.805 9.08594 273.07 9.08594C274.852 9.08594 276.258 9.64062 277.289 10.75C278.32 11.8516 278.836 13.3906 278.836 15.3672V16.9023H270.984C271.125 17.6133 271.434 18.1719 271.91 18.5781C272.387 18.9844 273.004 19.1875 273.762 19.1875C275.012 19.1875 275.988 18.75 276.691 17.875L278.496 20.0078C278.004 20.6875 277.305 21.2305 276.398 21.6367C275.5 22.0352 274.531 22.2344 273.492 22.2344ZM273.047 12.1328C271.891 12.1328 271.203 12.8984 270.984 14.4297H274.969V14.125C274.984 13.4922 274.824 13.0039 274.488 12.6602C274.152 12.3086 273.672 12.1328 273.047 12.1328ZM291.398 12.3438H287.402V22H283.43V12.3438H279.492V9.32031H291.398V12.3438Z" fill="white"/>
<rect x="219" y="43" width="92" height="2" fill="#F3AA3C"/>
<path d="M226.205 69.3838C226.205 70.5094 225.948 71.4163 225.433 72.1045C224.918 72.7926 224.22 73.1367 223.341 73.1367C222.443 73.1367 221.737 72.8519 221.222 72.2822V75.8438H219.957V65.6035H221.112L221.174 66.4238C221.689 65.7858 222.404 65.4668 223.32 65.4668C224.209 65.4668 224.911 65.8018 225.426 66.4717C225.945 67.1416 226.205 68.0736 226.205 69.2676V69.3838ZM224.94 69.2402C224.94 68.4062 224.763 67.7477 224.407 67.2646C224.052 66.7816 223.564 66.54 222.944 66.54C222.179 66.54 221.604 66.8796 221.222 67.5586V71.0928C221.6 71.7673 222.179 72.1045 222.958 72.1045C223.564 72.1045 224.045 71.8652 224.4 71.3867C224.76 70.9036 224.94 70.1882 224.94 69.2402ZM232.385 73C232.312 72.8542 232.253 72.5944 232.207 72.2207C231.619 72.8314 230.917 73.1367 230.102 73.1367C229.372 73.1367 228.773 72.9316 228.304 72.5215C227.839 72.1068 227.606 71.5827 227.606 70.9492C227.606 70.179 227.898 69.582 228.481 69.1582C229.069 68.7298 229.894 68.5156 230.956 68.5156H232.187V67.9346C232.187 67.4925 232.054 67.1416 231.79 66.8818C231.526 66.6175 231.136 66.4854 230.621 66.4854C230.17 66.4854 229.792 66.5993 229.486 66.8271C229.181 67.055 229.028 67.3307 229.028 67.6543H227.757C227.757 67.2852 227.887 66.9297 228.146 66.5879C228.411 66.2415 228.766 65.9681 229.213 65.7676C229.664 65.5671 230.159 65.4668 230.696 65.4668C231.549 65.4668 232.216 65.681 232.699 66.1094C233.182 66.5332 233.433 67.1188 233.451 67.8662V71.2705C233.451 71.9495 233.538 72.4896 233.711 72.8906V73H232.385ZM230.286 72.0361C230.683 72.0361 231.059 71.9336 231.414 71.7285C231.77 71.5234 232.027 71.2568 232.187 70.9287V69.4111H231.195C229.646 69.4111 228.871 69.8646 228.871 70.7715C228.871 71.168 229.003 71.4779 229.268 71.7012C229.532 71.9245 229.871 72.0361 230.286 72.0361ZM238.681 66.0273C239.61 66.0273 240.353 66.3395 240.909 66.9639C241.47 67.5837 241.75 68.4017 241.75 69.418V69.5342C241.75 70.2314 241.616 70.8558 241.347 71.4072C241.078 71.9541 240.69 72.3802 240.185 72.6855C239.683 72.9863 239.104 73.1367 238.448 73.1367C237.455 73.1367 236.655 72.8063 236.049 72.1455C235.443 71.4801 235.14 70.5892 235.14 69.4727V68.8574C235.14 67.3034 235.427 66.0684 236.001 65.1523C236.58 64.2363 237.432 63.6781 238.558 63.4775C239.196 63.3636 239.626 63.2246 239.85 63.0605C240.073 62.8965 240.185 62.6709 240.185 62.3838H241.224C241.224 62.9535 241.094 63.3978 240.834 63.7168C240.579 64.0358 240.169 64.2614 239.604 64.3936L238.66 64.6055C237.908 64.7832 237.343 65.084 236.965 65.5078C236.591 65.9271 236.347 66.4876 236.233 67.1895C236.903 66.4147 237.719 66.0273 238.681 66.0273ZM238.435 67.0664C237.815 67.0664 237.323 67.276 236.958 67.6953C236.593 68.11 236.411 68.6865 236.411 69.4248V69.5342C236.411 70.3271 236.593 70.9561 236.958 71.4209C237.327 71.8812 237.824 72.1113 238.448 72.1113C239.077 72.1113 239.574 71.8789 239.938 71.4141C240.303 70.9492 240.485 70.2702 240.485 69.377C240.485 68.6797 240.301 68.1214 239.932 67.7021C239.567 67.2783 239.068 67.0664 238.435 67.0664ZM242.837 69.2334C242.837 68.5088 242.978 67.8571 243.261 67.2783C243.548 66.6995 243.944 66.2529 244.45 65.9385C244.961 65.624 245.542 65.4668 246.193 65.4668C247.201 65.4668 248.014 65.8154 248.634 66.5127C249.258 67.21 249.57 68.1374 249.57 69.2949V69.3838C249.57 70.1038 249.431 70.751 249.153 71.3252C248.88 71.8949 248.486 72.3392 247.971 72.6582C247.46 72.9772 246.872 73.1367 246.207 73.1367C245.204 73.1367 244.391 72.7881 243.767 72.0908C243.147 71.3936 242.837 70.4707 242.837 69.3223V69.2334ZM244.108 69.3838C244.108 70.2041 244.298 70.8626 244.676 71.3594C245.059 71.8561 245.569 72.1045 246.207 72.1045C246.85 72.1045 247.36 71.8538 247.738 71.3525C248.117 70.8467 248.306 70.1403 248.306 69.2334C248.306 68.4222 248.112 67.766 247.725 67.2646C247.342 66.7588 246.831 66.5059 246.193 66.5059C245.569 66.5059 245.065 66.7542 244.683 67.251C244.3 67.7477 244.108 68.4587 244.108 69.3838ZM256.502 66.6289H254.021V73H252.756V66.6289H250.322V65.6035H256.502V66.6289ZM259.113 68.1533H261.034C261.873 68.1624 262.536 68.3812 263.023 68.8096C263.511 69.238 263.755 69.819 263.755 70.5527C263.755 71.291 263.504 71.8835 263.003 72.3301C262.502 72.7767 261.827 73 260.979 73H257.849V65.6035H259.113V68.1533ZM266.394 73H265.122V65.6035H266.394V73ZM259.113 69.1855V71.9678H260.993C261.467 71.9678 261.834 71.847 262.094 71.6055C262.354 71.3594 262.483 71.0244 262.483 70.6006C262.483 70.1904 262.356 69.8555 262.101 69.5957C261.85 69.3314 261.497 69.1947 261.041 69.1855H259.113ZM272.19 73V65.6035H275.075C276.06 65.6035 276.814 65.7767 277.338 66.123C277.867 66.4648 278.131 66.9684 278.131 67.6338C278.131 67.9756 278.028 68.2855 277.823 68.5635C277.618 68.8369 277.315 69.0465 276.914 69.1924C277.361 69.2972 277.718 69.5023 277.987 69.8076C278.261 70.113 278.397 70.4775 278.397 70.9014C278.397 71.5804 278.147 72.0999 277.646 72.46C277.149 72.82 276.445 73 275.533 73H272.19ZM273.455 69.7529V71.9814H275.547C276.076 71.9814 276.47 71.8835 276.729 71.6875C276.994 71.4915 277.126 71.2158 277.126 70.8604C277.126 70.1221 276.584 69.7529 275.499 69.7529H273.455ZM273.455 68.7412H275.089C276.274 68.7412 276.866 68.3949 276.866 67.7021C276.866 67.0094 276.306 66.6517 275.185 66.6289H273.455V68.7412ZM283.21 69.2334C283.21 68.5088 283.351 67.8571 283.634 67.2783C283.921 66.6995 284.317 66.2529 284.823 65.9385C285.334 65.624 285.915 65.4668 286.566 65.4668C287.574 65.4668 288.387 65.8154 289.007 66.5127C289.631 67.21 289.943 68.1374 289.943 69.2949V69.3838C289.943 70.1038 289.804 70.751 289.526 71.3252C289.253 71.8949 288.859 72.3392 288.344 72.6582C287.833 72.9772 287.245 73.1367 286.58 73.1367C285.577 73.1367 284.764 72.7881 284.14 72.0908C283.52 71.3936 283.21 70.4707 283.21 69.3223V69.2334ZM284.481 69.3838C284.481 70.2041 284.671 70.8626 285.049 71.3594C285.432 71.8561 285.942 72.1045 286.58 72.1045C287.223 72.1045 287.733 71.8538 288.111 71.3525C288.49 70.8467 288.679 70.1403 288.679 69.2334C288.679 68.4222 288.485 67.766 288.098 67.2646C287.715 66.7588 287.204 66.5059 286.566 66.5059C285.942 66.5059 285.438 66.7542 285.056 67.251C284.673 67.7477 284.481 68.4587 284.481 69.3838ZM296.875 66.6289H294.394V73H293.129V66.6289H290.695V65.6035H296.875V66.6289ZM304.354 69.3838C304.354 70.5094 304.096 71.4163 303.581 72.1045C303.066 72.7926 302.369 73.1367 301.489 73.1367C300.591 73.1367 299.885 72.8519 299.37 72.2822V75.8438H298.105V65.6035H299.261L299.322 66.4238C299.837 65.7858 300.553 65.4668 301.469 65.4668C302.357 65.4668 303.059 65.8018 303.574 66.4717C304.094 67.1416 304.354 68.0736 304.354 69.2676V69.3838ZM303.089 69.2402C303.089 68.4062 302.911 67.7477 302.556 67.2646C302.2 66.7816 301.713 66.54 301.093 66.54C300.327 66.54 299.753 66.8796 299.37 67.5586V71.0928C299.748 71.7673 300.327 72.1045 301.106 72.1045C301.713 72.1045 302.193 71.8652 302.549 71.3867C302.909 70.9036 303.089 70.1882 303.089 69.2402ZM310.533 73C310.46 72.8542 310.401 72.5944 310.355 72.2207C309.768 72.8314 309.066 73.1367 308.25 73.1367C307.521 73.1367 306.922 72.9316 306.452 72.5215C305.987 72.1068 305.755 71.5827 305.755 70.9492C305.755 70.179 306.047 69.582 306.63 69.1582C307.218 68.7298 308.043 68.5156 309.104 68.5156H310.335V67.9346C310.335 67.4925 310.203 67.1416 309.938 66.8818C309.674 66.6175 309.285 66.4854 308.77 66.4854C308.318 66.4854 307.94 66.5993 307.635 66.8271C307.329 67.055 307.177 67.3307 307.177 67.6543H305.905C305.905 67.2852 306.035 66.9297 306.295 66.5879C306.559 66.2415 306.915 65.9681 307.361 65.7676C307.812 65.5671 308.307 65.4668 308.845 65.4668C309.697 65.4668 310.365 65.681 310.848 66.1094C311.331 66.5332 311.581 67.1188 311.6 67.8662V71.2705C311.6 71.9495 311.686 72.4896 311.859 72.8906V73H310.533ZM308.435 72.0361C308.831 72.0361 309.207 71.9336 309.562 71.7285C309.918 71.5234 310.175 71.2568 310.335 70.9287V69.4111H309.344C307.794 69.4111 307.02 69.8646 307.02 70.7715C307.02 71.168 307.152 71.4779 307.416 71.7012C307.68 71.9245 308.02 72.0361 308.435 72.0361ZM316.549 72.1045C317 72.1045 317.394 71.9678 317.731 71.6943C318.069 71.4209 318.256 71.0791 318.292 70.6689H319.488C319.465 71.0928 319.32 71.4961 319.051 71.8789C318.782 72.2617 318.422 72.5671 317.971 72.7949C317.524 73.0228 317.05 73.1367 316.549 73.1367C315.542 73.1367 314.74 72.8018 314.143 72.1318C313.55 71.4574 313.254 70.5368 313.254 69.3701V69.1582C313.254 68.4382 313.386 67.7979 313.65 67.2373C313.915 66.6768 314.293 66.2415 314.785 65.9316C315.282 65.6217 315.868 65.4668 316.542 65.4668C317.371 65.4668 318.06 65.7152 318.606 66.2119C319.158 66.7087 319.452 67.3535 319.488 68.1465H318.292C318.256 67.668 318.073 67.276 317.745 66.9707C317.422 66.6608 317.021 66.5059 316.542 66.5059C315.899 66.5059 315.4 66.7383 315.045 67.2031C314.694 67.6634 314.519 68.3311 314.519 69.2061V69.4453C314.519 70.2975 314.694 70.9538 315.045 71.4141C315.396 71.8743 315.897 72.1045 316.549 72.1045ZM326.974 65.6035V73H325.702V66.6494H323.187L323.036 69.418C322.954 70.6895 322.74 71.5986 322.394 72.1455C322.052 72.6924 321.507 72.9772 320.76 73H320.254V71.8857L320.616 71.8584C321.026 71.8128 321.32 71.5758 321.498 71.1475C321.676 70.7191 321.79 69.9261 321.84 68.7686L321.977 65.6035H326.974ZM333.789 65.6035H335.054V73H333.789V67.6064L330.378 73H329.113V65.6035H330.378V71.0039L333.789 65.6035Z" fill="white"/>
</g>
<g clip-path="url(#clip2_831_6691)">
<path d="M445.949 22H434.043V19.4219L439.527 13.6562C440.879 12.1172 441.555 10.8945 441.555 9.98828C441.555 9.25391 441.395 8.69531 441.074 8.3125C440.754 7.92969 440.289 7.73828 439.68 7.73828C439.078 7.73828 438.59 7.99609 438.215 8.51172C437.84 9.01953 437.652 9.65625 437.652 10.4219H433.691C433.691 9.375 433.953 8.41016 434.477 7.52734C435 6.63672 435.727 5.94141 436.656 5.44141C437.586 4.94141 438.625 4.69141 439.773 4.69141C441.617 4.69141 443.035 5.11719 444.027 5.96875C445.027 6.82031 445.527 8.04297 445.527 9.63672C445.527 10.3086 445.402 10.9648 445.152 11.6055C444.902 12.2383 444.512 12.9062 443.98 13.6094C443.457 14.3047 442.609 15.2383 441.438 16.4102L439.234 18.9531H445.949V22ZM459.848 22H447.941V19.4219L453.426 13.6562C454.777 12.1172 455.453 10.8945 455.453 9.98828C455.453 9.25391 455.293 8.69531 454.973 8.3125C454.652 7.92969 454.188 7.73828 453.578 7.73828C452.977 7.73828 452.488 7.99609 452.113 8.51172C451.738 9.01953 451.551 9.65625 451.551 10.4219H447.59C447.59 9.375 447.852 8.41016 448.375 7.52734C448.898 6.63672 449.625 5.94141 450.555 5.44141C451.484 4.94141 452.523 4.69141 453.672 4.69141C455.516 4.69141 456.934 5.11719 457.926 5.96875C458.926 6.82031 459.426 8.04297 459.426 9.63672C459.426 10.3086 459.301 10.9648 459.051 11.6055C458.801 12.2383 458.41 12.9062 457.879 13.6094C457.355 14.3047 456.508 15.2383 455.336 16.4102L453.133 18.9531H459.848V22ZM473.688 15.0273C473.688 17.332 473.168 19.1094 472.129 20.3594C471.098 21.6094 469.641 22.2344 467.758 22.2344C465.859 22.2344 464.391 21.6055 463.352 20.3477C462.312 19.0898 461.793 17.3164 461.793 15.0273V11.9102C461.793 9.60547 462.309 7.82813 463.34 6.57812C464.379 5.32812 465.844 4.70312 467.734 4.70312C469.625 4.70312 471.09 5.33203 472.129 6.58984C473.168 7.84766 473.688 9.625 473.688 11.9219V15.0273ZM469.738 11.4062C469.738 10.1797 469.578 9.26562 469.258 8.66406C468.938 8.05469 468.43 7.75 467.734 7.75C467.055 7.75 466.559 8.03125 466.246 8.59375C465.941 9.15625 465.777 10.0078 465.754 11.1484V15.5078C465.754 16.7812 465.914 17.7148 466.234 18.3086C466.555 18.8945 467.062 19.1875 467.758 19.1875C468.43 19.1875 468.926 18.9023 469.246 18.332C469.566 17.7539 469.73 16.8516 469.738 15.625V11.4062ZM487.586 15.0273C487.586 17.332 487.066 19.1094 486.027 20.3594C484.996 21.6094 483.539 22.2344 481.656 22.2344C479.758 22.2344 478.289 21.6055 477.25 20.3477C476.211 19.0898 475.691 17.3164 475.691 15.0273V11.9102C475.691 9.60547 476.207 7.82813 477.238 6.57812C478.277 5.32812 479.742 4.70312 481.633 4.70312C483.523 4.70312 484.988 5.33203 486.027 6.58984C487.066 7.84766 487.586 9.625 487.586 11.9219V15.0273ZM483.637 11.4062C483.637 10.1797 483.477 9.26562 483.156 8.66406C482.836 8.05469 482.328 7.75 481.633 7.75C480.953 7.75 480.457 8.03125 480.145 8.59375C479.84 9.15625 479.676 10.0078 479.652 11.1484V15.5078C479.652 16.7812 479.812 17.7148 480.133 18.3086C480.453 18.8945 480.961 19.1875 481.656 19.1875C482.328 19.1875 482.824 18.9023 483.145 18.332C483.465 17.7539 483.629 16.8516 483.637 15.625V11.4062ZM502.797 12.3203H506.793V15.707H502.797V20.2891H499.105V15.707H495.098V12.3203H499.105V7.86719H502.797V12.3203Z" fill="white"/>
<rect x="433" y="43" width="92" height="2" fill="#F3AA3C"/>
<path d="M440.007 73H438.742V66.6494H435.338V73H434.066V65.6035H440.007V73ZM441.702 69.2334C441.702 68.5088 441.843 67.8571 442.126 67.2783C442.413 66.6995 442.81 66.2529 443.315 65.9385C443.826 65.624 444.407 65.4668 445.059 65.4668C446.066 65.4668 446.879 65.8154 447.499 66.5127C448.123 67.21 448.436 68.1374 448.436 69.2949V69.3838C448.436 70.1038 448.297 70.751 448.019 71.3252C447.745 71.8949 447.351 72.3392 446.836 72.6582C446.326 72.9772 445.738 73.1367 445.072 73.1367C444.07 73.1367 443.256 72.7881 442.632 72.0908C442.012 71.3936 441.702 70.4707 441.702 69.3223V69.2334ZM442.974 69.3838C442.974 70.2041 443.163 70.8626 443.541 71.3594C443.924 71.8561 444.434 72.1045 445.072 72.1045C445.715 72.1045 446.225 71.8538 446.604 71.3525C446.982 70.8467 447.171 70.1403 447.171 69.2334C447.171 68.4222 446.977 67.766 446.59 67.2646C446.207 66.7588 445.697 66.5059 445.059 66.5059C444.434 66.5059 443.931 66.7542 443.548 67.251C443.165 67.7477 442.974 68.4587 442.974 69.3838ZM452.988 72.1045C453.439 72.1045 453.834 71.9678 454.171 71.6943C454.508 71.4209 454.695 71.0791 454.731 70.6689H455.928C455.905 71.0928 455.759 71.4961 455.49 71.8789C455.221 72.2617 454.861 72.5671 454.41 72.7949C453.964 73.0228 453.49 73.1367 452.988 73.1367C451.981 73.1367 451.179 72.8018 450.582 72.1318C449.99 71.4574 449.693 70.5368 449.693 69.3701V69.1582C449.693 68.4382 449.826 67.7979 450.09 67.2373C450.354 66.6768 450.732 66.2415 451.225 65.9316C451.721 65.6217 452.307 65.4668 452.981 65.4668C453.811 65.4668 454.499 65.7152 455.046 66.2119C455.597 66.7087 455.891 67.3535 455.928 68.1465H454.731C454.695 67.668 454.513 67.276 454.185 66.9707C453.861 66.6608 453.46 66.5059 452.981 66.5059C452.339 66.5059 451.84 66.7383 451.484 67.2031C451.133 67.6634 450.958 68.3311 450.958 69.2061V69.4453C450.958 70.2975 451.133 70.9538 451.484 71.4141C451.835 71.8743 452.337 72.1045 452.988 72.1045ZM462.846 66.6289H460.364V73H459.1V66.6289H456.666V65.6035H462.846V66.6289ZM463.454 69.2334C463.454 68.5088 463.595 67.8571 463.878 67.2783C464.165 66.6995 464.562 66.2529 465.067 65.9385C465.578 65.624 466.159 65.4668 466.811 65.4668C467.818 65.4668 468.631 65.8154 469.251 66.5127C469.875 67.21 470.188 68.1374 470.188 69.2949V69.3838C470.188 70.1038 470.049 70.751 469.771 71.3252C469.497 71.8949 469.103 72.3392 468.588 72.6582C468.077 72.9772 467.49 73.1367 466.824 73.1367C465.822 73.1367 465.008 72.7881 464.384 72.0908C463.764 71.3936 463.454 70.4707 463.454 69.3223V69.2334ZM464.726 69.3838C464.726 70.2041 464.915 70.8626 465.293 71.3594C465.676 71.8561 466.186 72.1045 466.824 72.1045C467.467 72.1045 467.977 71.8538 468.355 71.3525C468.734 70.8467 468.923 70.1403 468.923 69.2334C468.923 68.4222 468.729 67.766 468.342 67.2646C467.959 66.7588 467.449 66.5059 466.811 66.5059C466.186 66.5059 465.683 66.7542 465.3 67.251C464.917 67.7477 464.726 68.4587 464.726 69.3838ZM477.427 65.6035V73H476.155V70.1221H474.248L472.505 73H471.138L472.997 69.9307C472.523 69.7575 472.159 69.4909 471.903 69.1309C471.653 68.7663 471.527 68.3424 471.527 67.8594C471.527 67.1849 471.78 66.6426 472.286 66.2324C472.792 65.8177 473.469 65.6081 474.316 65.6035H477.427ZM472.799 67.873C472.799 68.2331 472.922 68.5247 473.168 68.748C473.414 68.9668 473.74 69.0785 474.146 69.083H476.155V66.6289H474.337C473.868 66.6289 473.494 66.7451 473.216 66.9775C472.938 67.2054 472.799 67.5039 472.799 67.873ZM485.5 73H484.235V69.8418H480.838V73H479.566V65.6035H480.838V68.8096H484.235V65.6035H485.5V73ZM493.58 73H492.315V69.8418H488.918V73H487.646V65.6035H488.918V68.8096H492.315V65.6035H493.58V73ZM496.998 68.1533H498.919C499.757 68.1624 500.421 68.3812 500.908 68.8096C501.396 69.238 501.64 69.819 501.64 70.5527C501.64 71.291 501.389 71.8835 500.888 72.3301C500.386 72.7767 499.712 73 498.864 73H495.733V65.6035H496.998V68.1533ZM504.278 73H503.007V65.6035H504.278V73ZM496.998 69.1855V71.9678H498.878C499.352 71.9678 499.719 71.847 499.979 71.6055C500.238 71.3594 500.368 71.0244 500.368 70.6006C500.368 70.1904 500.241 69.8555 499.985 69.5957C499.735 69.3314 499.382 69.1947 498.926 69.1855H496.998ZM508.968 68.3037L510.608 65.6035H512.085L509.665 69.2607L512.16 73H510.697L508.988 70.2314L507.279 73H505.81L508.305 69.2607L505.885 65.6035H507.348L508.968 68.3037ZM519.208 69.8486H518.285V73H517.014V65.6035H518.285V68.7344H519.112L521.601 65.6035H523.132L520.206 69.1582L523.378 73H521.771L519.208 69.8486ZM530.528 65.6035V73H529.257V66.6494H526.741L526.591 69.418C526.509 70.6895 526.295 71.5986 525.948 72.1455C525.606 72.6924 525.062 72.9772 524.314 73H523.809V71.8857L524.171 71.8584C524.581 71.8128 524.875 71.5758 525.053 71.1475C525.23 70.7191 525.344 69.9261 525.395 68.7686L525.531 65.6035H530.528ZM537.344 65.6035H538.608V73H537.344V67.6064L533.933 73H532.668V65.6035H533.933V71.0039L537.344 65.6035ZM543.708 73.1367C542.705 73.1367 541.89 72.8086 541.261 72.1523C540.632 71.4915 540.317 70.6097 540.317 69.5068V69.2744C540.317 68.5407 540.456 67.8867 540.734 67.3125C541.017 66.7337 541.409 66.2826 541.91 65.959C542.416 65.6309 542.963 65.4668 543.551 65.4668C544.512 65.4668 545.26 65.7835 545.793 66.417C546.326 67.0505 546.593 67.9574 546.593 69.1377V69.6641H541.582C541.6 70.3932 541.812 70.9834 542.218 71.4346C542.628 71.8812 543.147 72.1045 543.776 72.1045C544.223 72.1045 544.601 72.0133 544.911 71.8311C545.221 71.6488 545.492 71.4072 545.725 71.1064L546.497 71.708C545.877 72.6605 544.948 73.1367 543.708 73.1367ZM543.551 66.5059C543.04 66.5059 542.612 66.6927 542.266 67.0664C541.919 67.4355 541.705 67.9551 541.623 68.625H545.328V68.5293C545.292 67.8867 545.118 67.39 544.809 67.0391C544.499 66.6836 544.079 66.5059 543.551 66.5059ZM554.105 73H552.841V69.8418H549.443V73H548.172V65.6035H549.443V68.8096H552.841V65.6035H554.105V73ZM561.639 66.6289H559.157V73H557.893V66.6289H555.459V65.6035H561.639V66.6289ZM562.247 69.2334C562.247 68.5088 562.388 67.8571 562.671 67.2783C562.958 66.6995 563.354 66.2529 563.86 65.9385C564.371 65.624 564.952 65.4668 565.604 65.4668C566.611 65.4668 567.424 65.8154 568.044 66.5127C568.668 67.21 568.98 68.1374 568.98 69.2949V69.3838C568.98 70.1038 568.841 70.751 568.563 71.3252C568.29 71.8949 567.896 72.3392 567.381 72.6582C566.87 72.9772 566.283 73.1367 565.617 73.1367C564.615 73.1367 563.801 72.7881 563.177 72.0908C562.557 71.3936 562.247 70.4707 562.247 69.3223V69.2334ZM563.519 69.3838C563.519 70.2041 563.708 70.8626 564.086 71.3594C564.469 71.8561 564.979 72.1045 565.617 72.1045C566.26 72.1045 566.77 71.8538 567.148 71.3525C567.527 70.8467 567.716 70.1403 567.716 69.2334C567.716 68.4222 567.522 67.766 567.135 67.2646C566.752 66.7588 566.242 66.5059 565.604 66.5059C564.979 66.5059 564.476 66.7542 564.093 67.251C563.71 67.7477 563.519 68.4587 563.519 69.3838ZM570.683 73V65.6035H573.567C574.552 65.6035 575.306 65.7767 575.83 66.123C576.359 66.4648 576.623 66.9684 576.623 67.6338C576.623 67.9756 576.521 68.2855 576.315 68.5635C576.11 68.8369 575.807 69.0465 575.406 69.1924C575.853 69.2972 576.211 69.5023 576.479 69.8076C576.753 70.113 576.89 70.4775 576.89 70.9014C576.89 71.5804 576.639 72.0999 576.138 72.46C575.641 72.82 574.937 73 574.025 73H570.683ZM571.947 69.7529V71.9814H574.039C574.568 71.9814 574.962 71.8835 575.222 71.6875C575.486 71.4915 575.618 71.2158 575.618 70.8604C575.618 70.1221 575.076 69.7529 573.991 69.7529H571.947ZM571.947 68.7412H573.581C574.766 68.7412 575.358 68.3949 575.358 67.7021C575.358 67.0094 574.798 66.6517 573.677 66.6289H571.947V68.7412Z" fill="white"/>
</g>
<defs>
<clipPath id="clip0_831_6691">
<rect width="123" height="76" fill="white"/>
</clipPath>
<clipPath id="clip1_831_6691">
<rect width="118" height="76" fill="white" transform="translate(219)"/>
</clipPath>
<clipPath id="clip2_831_6691">
<rect width="145" height="76" fill="white" transform="translate(433)"/>
</clipPath>
</defs>
</svg>
