<svg width="158" height="45" viewBox="0 0 158 45" fill="none" xmlns="http://www.w3.org/2000/svg">
<path fill-rule="evenodd" clip-rule="evenodd" d="M21.8972 4.53032C30.9901 5.2746 38.1377 12.8786 38.1377 22.1502C38.1377 31.4217 30.9901 39.0257 21.8972 39.77C30.6683 38.8667 36.9145 30.44 36.9632 22.1502C37.0052 15.0839 31.2301 6.85151 21.8972 5.88195C38.4772 8.36437 39.2569 32.5668 21.8972 33.8743V39.7689C30.2447 38.838 37.4332 31.4206 37.4332 22.149C37.4332 12.8775 30.4593 6.13594 21.8972 5.20503V4.53032ZM21.8972 5.88306C38.2317 9.82091 38.1045 31.5718 21.8972 33.3343C26.3884 32.7523 30.0512 29.5367 31.2821 25.2896H21.905V18.9466H31.2633C30.0147 14.7316 26.3662 11.5447 21.8972 10.966V5.88306ZM19.0804 39.7799C9.93227 39.0909 2.72388 31.4614 2.72388 22.1502C2.72388 12.84 9.93006 5.21166 19.0771 4.52148C10.3072 5.42589 4.06315 13.8526 4.01338 22.1402C3.97136 29.2065 9.74648 37.4389 19.0793 38.4084V39.0842C10.5184 38.1533 3.54336 31.4117 3.54336 22.1402C3.54336 12.8698 10.7296 5.45239 19.076 4.52148H19.0782V10.2571C1.7186 11.5646 2.49827 35.926 19.0782 38.4084V39.7799H19.0804ZM19.0804 10.7982C2.87318 12.5606 2.74489 34.4706 19.0804 38.4084V33.3486C13.479 32.6827 9.136 27.9233 9.136 22.1502C9.136 16.377 13.479 11.6187 19.0804 10.9517V10.7982Z" fill="#387C43"/>
<path fill-rule="evenodd" clip-rule="evenodd" d="M48.6167 16.372V19.0228C48.6167 20.3496 48.033 20.825 47.1063 20.825C46.1796 20.825 45.5959 20.3466 45.5959 19.0228V9.00358C45.5959 7.67972 46.1796 7.17424 47.1063 7.17424C48.033 7.17424 48.6167 7.67671 48.6167 9.00358V10.9924H51.3726V9.19012C51.3726 6.22047 49.8894 4.52352 47.0251 4.52352C44.1638 4.52352 42.6775 6.22047 42.6775 9.19012V18.8392C42.6775 21.8089 44.1608 23.5058 47.0251 23.5058C49.8863 23.5058 51.3726 21.8089 51.3726 18.8392V16.3751H48.6167V16.372ZM52.2993 7.38486H55.3471V23.2892H58.2626V7.38486H61.3104V4.73414H52.2993V7.38486ZM69.0518 4.73414H64.7854L61.8158 23.2892H64.4936L64.9961 19.9224H68.5734L69.0759 23.2892H72.0184L69.0518 4.73414ZM66.7712 8.02272L68.1762 17.4071H65.3661L66.7712 8.02272ZM72.5509 23.3163H73.0022C75.9176 23.3163 77.1362 21.9924 77.2445 18.5985L77.5634 7.38486H80.1088V23.2892H83.0784V4.73414H74.8345L74.3561 18.755C74.302 20.479 73.8777 20.6625 72.5539 20.6625V23.3163H72.5509ZM89.5952 23.2892C92.5106 23.2892 93.9428 21.6735 93.9428 18.7038V16.2908C93.9428 13.3211 92.5106 11.7054 89.5952 11.7054H88.2172V4.73414H85.3018V23.2892H89.5952ZM88.2172 20.6385V14.3562H89.5952C90.5219 14.3562 91.0273 14.7804 91.0273 16.1043V18.8874C91.0273 20.2142 90.5249 20.6355 89.5952 20.6355H88.2172V20.6385ZM95.3208 16.6368V18.8362C95.3208 21.8059 96.8041 23.5028 99.6683 23.5028C102.533 23.5028 104.016 21.8059 104.016 18.8362V9.18711C104.016 6.21745 102.533 4.52051 99.6683 4.52051C96.8041 4.52051 95.3749 6.21745 95.3749 9.18711V10.7517H98.0797V9.00358C98.0797 7.67972 98.6634 7.17424 99.5901 7.17424C100.517 7.17424 101.1 7.67671 101.1 9.00358V12.3704H98.4227V15.0211H101.1V19.0228C101.1 20.3496 100.517 20.825 99.5901 20.825C98.6634 20.825 98.0797 20.3466 98.0797 19.0228V16.6368H95.3208ZM108.839 15.337H112.151V23.2892H115.121V4.73414H112.151V12.6863H108.839V4.73414H105.923V23.2892H108.839V15.337ZM120.158 7.38486H125.194V4.73414H117.242V23.2892H125.194V20.6385H120.158V15.2046H124.159V12.5539H120.158V7.38486ZM131.29 4.73414H126.996V23.2892H129.912V16.3179H131.29C134.205 16.3179 135.637 14.7022 135.637 11.7325V9.31949C135.637 6.35285 134.205 4.73414 131.29 4.73414ZM131.29 7.38486C132.216 7.38486 132.722 7.80909 132.722 9.13295V11.9161C132.722 13.2399 132.22 13.6642 131.29 13.6642H129.912V7.38185H131.29V7.38486ZM139.931 23.2892V7.38486H144.703V4.73414H137.015V23.2892H139.931ZM149.339 9.00358C149.339 7.67972 149.923 7.17424 150.849 7.17424C151.776 7.17424 152.36 7.67671 152.36 9.00358V19.0228C152.36 20.3496 151.776 20.8521 150.849 20.8521C149.923 20.8521 149.339 20.3496 149.339 19.0228V9.00358ZM146.424 18.8362C146.424 21.8059 147.988 23.5028 150.849 23.5028C153.711 23.5028 155.275 21.8059 155.275 18.8362V9.18711C155.275 6.21745 153.711 4.52051 150.849 4.52051C147.988 4.52051 146.424 6.21745 146.424 9.18711V18.8362Z" fill="#387C43"/>
<path fill-rule="evenodd" clip-rule="evenodd" d="M93.1083 28.9302H91.3266L90.5521 32.6338L90.1476 35.1485L89.6211 32.6186L88.6902 28.9302H87L89.3579 37.2643L89.3426 37.3554C89.2014 38.1417 88.7055 38.2975 87.8394 38.2367V39.7485C90.2125 39.9043 90.8764 38.9318 91.2808 36.987L93.1083 28.9302ZM96.3323 28.9302H93.8218V39.7333H95.5272V35.6727H96.3323C98.0377 35.6727 98.8733 34.7306 98.8733 33.0022V31.5968C98.8771 29.8722 98.0377 28.9302 96.3323 28.9302ZM96.3323 30.4724C96.8741 30.4724 97.1678 30.7193 97.1678 31.4904V33.1124C97.1678 33.8835 96.8741 34.1304 96.3323 34.1304H95.5272V30.4724H96.3323ZM103.448 28.9302H100.953L99.2167 39.7333H100.781L101.075 37.7733H103.169L103.463 39.7333H105.184L103.448 28.9302ZM102.116 30.8447L102.937 36.307H101.292L102.116 30.8447ZM105.497 39.7485H105.76C107.465 39.7485 108.179 38.9774 108.24 37.0022L108.427 30.4724H109.915V39.7333H111.651V28.9302H106.828L106.55 37.0933C106.519 38.0961 106.271 38.2063 105.497 38.2063V39.7485Z" fill="#979897"/>
<rect x="117" y="34" width="38" height="1" fill="#979897"/>
<rect x="43" y="34" width="38" height="1" fill="#979897"/>
<path fill-rule="evenodd" clip-rule="evenodd" d="M19.0854 39.7588C9.99257 39.0145 2.845 31.4105 2.845 22.139C2.845 12.8675 9.99257 5.2634 19.0854 4.51912L19.0854 10.4148L19.0854 4.52022C10.738 5.45113 3.54947 12.8686 3.54947 22.1401C3.54947 31.4116 10.5234 38.1532 19.0854 39.0841L19.0854 39.7588ZM19.0854 38.4061C2.751 34.4682 2.87818 12.7173 19.0854 10.9548C14.5943 11.5368 10.9315 14.7524 9.7006 18.9995C9.7006 18.9995 9.12068 20.2128 9.12068 22.0586C9.12068 23.9044 9.71941 25.3425 9.71941 25.3425C10.968 29.5575 14.6164 32.7444 19.0854 33.3231L19.0854 38.4061Z" fill="#B7B7B7"/>
<path fill-rule="evenodd" clip-rule="evenodd" d="M21.8986 4.50391C30.9914 5.24819 38.139 12.8522 38.139 22.1237C38.139 31.3952 30.9914 38.9993 21.8986 39.7436V33.8478V39.7425C30.246 38.8116 37.4345 31.3941 37.4345 22.1226C37.4345 12.8511 30.4606 6.10952 21.8986 5.17862V4.50391ZM21.8986 5.85664C38.233 9.79449 38.1058 31.5454 21.8986 33.3078C26.3897 32.7259 30.0525 29.5102 31.2834 25.2632H21.9063V18.9202H31.2646C30.016 14.7052 26.3676 11.5182 21.8986 10.9396V5.85664Z" fill="#B7B7B7"/>
</svg>
