<svg width="52" height="52" viewBox="0 0 52 52" fill="none" xmlns="http://www.w3.org/2000/svg">
<rect width="52" height="52" rx="4" fill="#F3AA3C"/>
<g clip-path="url(#clip0_831_6406)">
<path d="M37.1859 28.5646C36.8422 24.0904 34.7591 21.2867 32.9214 18.8125C31.2197 16.5219 29.75 14.5439 29.75 11.6261C29.75 11.3917 29.6188 11.1775 29.4106 11.0701C29.2019 10.962 28.951 10.9797 28.7612 11.1177C26.0012 13.0926 23.6984 16.4213 22.8939 19.5973C22.3355 21.8084 22.2616 24.2942 22.2512 25.936C19.7024 25.3916 19.125 21.579 19.1189 21.5374C19.0902 21.3397 18.9694 21.1676 18.7936 21.0736C18.616 20.9809 18.4072 20.9741 18.2272 21.0632C18.0935 21.1279 14.9465 22.727 14.7634 29.1114C14.7506 29.3238 14.75 29.5368 14.75 29.7498C14.75 35.9524 19.797 40.9991 26 40.9991C26.0086 40.9996 26.0177 41.0009 26.025 40.9991C26.0275 40.9991 26.0299 40.9991 26.0329 40.9991C32.2207 40.9813 37.25 35.9414 37.25 29.7498C37.25 29.4379 37.1859 28.5646 37.1859 28.5646ZM26 39.7491C23.9321 39.7491 22.25 37.9573 22.25 35.7547C22.25 35.6796 22.2494 35.6039 22.2549 35.5112C22.2799 34.5823 22.4563 33.9482 22.6498 33.5264C23.0124 34.3052 23.6605 35.0211 24.7134 35.0211C25.0589 35.0211 25.3384 34.7415 25.3384 34.3961C25.3384 33.5063 25.3568 32.4798 25.5783 31.5533C25.7755 30.7318 26.2466 29.8578 26.8436 29.1572C27.1091 30.0666 27.6267 30.8026 28.1321 31.5209C28.8553 32.5487 29.603 33.6113 29.7342 35.4233C29.7421 35.5307 29.7501 35.6387 29.7501 35.7547C29.75 37.9572 28.0679 39.7491 26 39.7491Z" fill="white"/>
</g>
<defs>
<clipPath id="clip0_831_6406">
<rect width="30" height="30" fill="white" transform="translate(11 11)"/>
</clipPath>
</defs>
</svg>
