<svg width="52" height="52" viewBox="0 0 52 52" fill="none" xmlns="http://www.w3.org/2000/svg">
<rect width="52" height="52" rx="4" fill="#F3AA3C"/>
<path d="M41 24.189H37.2985V34.8482H41V24.189Z" fill="white"/>
<path d="M14.7015 24.189H11V34.8482H14.7015V24.189Z" fill="white"/>
<path d="M30.0312 23.1386V20.208H21.9685V23.1386C21.0734 23.704 20.2946 24.4572 19.6969 25.3618H16.4595V33.6754H19.6969C21.088 35.7807 23.4575 37.0685 25.9998 37.0685C28.5422 37.0685 30.9117 35.7806 32.3027 33.6754H35.5402V25.3617H32.3028C31.7051 24.4571 30.9263 23.704 30.0312 23.1386Z" fill="white"/>
<path d="M19.329 14.9314V16.6893H23.3617V18.4499H28.6382V16.6893H32.6709V14.9314H19.329Z" fill="white"/>
</svg>
