<svg width="52" height="52" viewBox="0 0 52 52" fill="none" xmlns="http://www.w3.org/2000/svg">
<rect width="52" height="52" rx="4" fill="#F3AA3C"/>
<g clip-path="url(#clip0_831_6391)">
<path d="M16.8929 35.375V32.6504L11.7576 37.7857H14.4822C15.813 37.7843 16.8915 36.7058 16.8929 35.375Z" fill="white"/>
<path d="M32.8094 11H31.0554L18.6542 24.3928H20.4092L32.8094 11Z" fill="white"/>
<path d="M20.1072 35.3751V25.4644H17.9643V35.3751C17.9621 37.2973 16.4044 38.855 14.4822 38.8572H11V41.0001H27.0714V38.8572H23.5893C21.6671 38.855 20.1094 37.2973 20.1072 35.3751Z" fill="white"/>
<path d="M40.2424 24.3926H36.7142C36.6823 24.3893 36.6507 24.3829 36.62 24.3736C34.8478 24.1861 33.5021 22.6925 33.4999 20.9104V11.8308L21.1785 25.138V35.3748C21.1799 36.7056 22.2584 37.784 23.5892 37.7855H27.3774L37.9332 26.7018L40.2424 24.3926ZM23.7017 35.996C23.6003 36.0959 23.4636 36.1517 23.3214 36.1514C23.1789 36.1528 23.0418 36.0968 22.941 35.996C22.8402 35.8952 22.7843 35.7582 22.7856 35.6157C22.7866 35.4752 22.8423 35.3407 22.941 35.2408C23.1536 35.037 23.489 35.037 23.7016 35.2408C23.8001 35.3408 23.8558 35.4753 23.857 35.6157C23.8559 35.7577 23.8003 35.8939 23.7017 35.996ZM25.8519 33.742L25.3162 34.3033C25.1119 34.5174 24.7727 34.5254 24.5586 34.3211C24.3445 34.1169 24.3366 33.7777 24.5408 33.5636L25.0765 33.0023C25.2087 32.8637 25.4047 32.8063 25.5907 32.8515C25.7767 32.8967 25.9245 33.0377 25.9783 33.2214C26.0323 33.405 25.984 33.6035 25.8519 33.742ZM27.9947 31.4971L27.459 32.0584C27.2548 32.2725 26.9156 32.2805 26.7015 32.0762C26.4874 31.872 26.4794 31.5328 26.6836 31.3187L27.2194 30.7574C27.4236 30.5432 27.7628 30.5353 27.9769 30.7395C28.191 30.9439 28.199 31.283 27.9947 31.4971ZM30.1376 29.2523L29.6018 29.8136C29.3976 30.0277 29.0584 30.0357 28.8443 29.8314C28.6302 29.6271 28.6222 29.2879 28.8265 29.0738L29.3622 28.5125C29.5665 28.2984 29.9057 28.2904 30.1198 28.4947C30.3339 28.699 30.3419 29.0382 30.1376 29.2523ZM32.2805 27.0074L31.7447 27.5687C31.6126 27.7072 31.4166 27.7647 31.2306 27.7194C31.0445 27.6743 30.8968 27.5332 30.8429 27.3495C30.7891 27.1658 30.8373 26.9674 30.9694 26.8289L31.5051 26.2675C31.7094 26.0534 32.0486 26.0455 32.2627 26.2497C32.4767 26.4541 32.4847 26.7933 32.2805 27.0074ZM33.8802 25.3301C33.7803 25.4328 33.6432 25.4907 33.4999 25.4907C33.3566 25.4907 33.2195 25.4328 33.1196 25.3301C33.0189 25.2315 32.9627 25.096 32.9642 24.955C32.9651 24.8129 33.0208 24.6767 33.1196 24.5747C33.3344 24.3764 33.6654 24.3764 33.8802 24.5747C33.9789 24.6768 34.0345 24.813 34.0356 24.955C34.0369 25.096 33.9808 25.2314 33.8802 25.3301Z" fill="white"/>
<path d="M38.7002 27.4503L28.1428 38.5358V40.1965L37.933 29.9166L41 26.8497V25.1504L38.7002 27.4503Z" fill="white"/>
</g>
<defs>
<clipPath id="clip0_831_6391">
<rect width="30" height="30" fill="white" transform="translate(11 11)"/>
</clipPath>
</defs>
</svg>
