<svg width="158" height="45" viewBox="0 0 158 45" fill="none" xmlns="http://www.w3.org/2000/svg">
<path fill-rule="evenodd" clip-rule="evenodd" d="M21.8972 4.53019C30.9901 5.27447 38.1377 12.8785 38.1377 22.15C38.1377 31.4215 30.9901 39.0256 21.8972 39.7699C30.6683 38.8666 36.9145 30.4398 36.9632 22.15C37.0052 15.0838 31.2301 6.85138 21.8972 5.88182C38.4772 8.36424 39.2569 32.5667 21.8972 33.8741V39.7688C30.2447 38.8378 37.4332 31.4204 37.4332 22.1489C37.4332 12.8774 30.4593 6.13581 21.8972 5.2049V4.53019ZM21.8972 5.88293C38.2317 9.82078 38.1045 31.5717 21.8972 33.3341C26.3884 32.7522 30.0512 29.5365 31.2821 25.2895H21.905V18.9465H31.2633C30.0147 14.7315 26.3662 11.5446 21.8972 10.9659V5.88293ZM19.0804 39.7798C9.93227 39.0907 2.72388 31.4613 2.72388 22.15C2.72388 12.8399 9.93006 5.21153 19.0771 4.52135C10.3072 5.42576 4.06315 13.8525 4.01338 22.1401C3.97136 29.2064 9.74648 37.4387 19.0793 38.4083V39.0841C10.5184 38.1532 3.54336 31.4116 3.54336 22.1401C3.54336 12.8697 10.7296 5.45226 19.076 4.52135H19.0782V10.257C1.7186 11.5644 2.49827 35.9259 19.0782 38.4083V39.7798H19.0804ZM19.0804 10.7981C2.87318 12.5605 2.74489 34.4704 19.0804 38.4083V33.3485C13.479 32.6826 9.136 27.9232 9.136 22.15C9.136 16.3769 13.479 11.6185 19.0804 10.9516V10.7981Z" fill="#387C43"/>
<path fill-rule="evenodd" clip-rule="evenodd" d="M48.6167 16.3719V19.0226C48.6167 20.3495 48.033 20.8249 47.1063 20.8249C46.1796 20.8249 45.5959 20.3465 45.5959 19.0226V9.00345C45.5959 7.6796 46.1796 7.17412 47.1063 7.17412C48.033 7.17412 48.6167 7.67659 48.6167 9.00345V10.9922H51.3726V9.19C51.3726 6.22034 49.8894 4.5234 47.0251 4.5234C44.1638 4.5234 42.6775 6.22034 42.6775 9.19V18.8391C42.6775 21.8088 44.1608 23.5057 47.0251 23.5057C49.8863 23.5057 51.3726 21.8088 51.3726 18.8391V16.3749H48.6167V16.3719ZM52.2993 7.38474H55.3471V23.2891H58.2626V7.38474H61.3104V4.73401H52.2993V7.38474ZM69.0518 4.73401H64.7854L61.8158 23.2891H64.4936L64.9961 19.9223H68.5734L69.0759 23.2891H72.0184L69.0518 4.73401ZM66.7712 8.02259L68.1762 17.4069H65.3661L66.7712 8.02259ZM72.5509 23.3161H73.0022C75.9176 23.3161 77.1362 21.9923 77.2445 18.5984L77.5634 7.38474H80.1088V23.2891H83.0784V4.73401H74.8345L74.3561 18.7549C74.302 20.4789 73.8777 20.6624 72.5539 20.6624V23.3161H72.5509ZM89.5952 23.2891C92.5106 23.2891 93.9428 21.6734 93.9428 18.7037V16.2907C93.9428 13.321 92.5106 11.7053 89.5952 11.7053H88.2172V4.73401H85.3018V23.2891H89.5952ZM88.2172 20.6383V14.356H89.5952C90.5219 14.356 91.0273 14.7803 91.0273 16.1041V18.8872C91.0273 20.2141 90.5249 20.6353 89.5952 20.6353H88.2172V20.6383ZM95.3208 16.6367V18.8361C95.3208 21.8057 96.8041 23.5027 99.6683 23.5027C102.533 23.5027 104.016 21.8057 104.016 18.8361V9.18698C104.016 6.21733 102.533 4.52039 99.6683 4.52039C96.8041 4.52039 95.3749 6.21733 95.3749 9.18698V10.7515H98.0797V9.00345C98.0797 7.6796 98.6634 7.17412 99.5901 7.17412C100.517 7.17412 101.1 7.67659 101.1 9.00345V12.3703H98.4227V15.021H101.1V19.0226C101.1 20.3495 100.517 20.8249 99.5901 20.8249C98.6634 20.8249 98.0797 20.3465 98.0797 19.0226V16.6367H95.3208ZM108.839 15.3369H112.151V23.2891H115.121V4.73401H112.151V12.6862H108.839V4.73401H105.923V23.2891H108.839V15.3369ZM120.158 7.38474H125.194V4.73401H117.242V23.2891H125.194V20.6383H120.158V15.2045H124.159V12.5538H120.158V7.38474ZM131.29 4.73401H126.996V23.2891H129.912V16.3178H131.29C134.205 16.3178 135.637 14.702 135.637 11.7324V9.31937C135.637 6.35273 134.205 4.73401 131.29 4.73401ZM131.29 7.38474C132.216 7.38474 132.722 7.80897 132.722 9.13283V11.9159C132.722 13.2398 132.22 13.664 131.29 13.664H129.912V7.38172H131.29V7.38474ZM139.931 23.2891V7.38474H144.703V4.73401H137.015V23.2891H139.931ZM149.339 9.00345C149.339 7.6796 149.923 7.17412 150.849 7.17412C151.776 7.17412 152.36 7.67659 152.36 9.00345V19.0226C152.36 20.3495 151.776 20.852 150.849 20.852C149.923 20.852 149.339 20.3495 149.339 19.0226V9.00345ZM146.424 18.8361C146.424 21.8057 147.988 23.5027 150.849 23.5027C153.711 23.5027 155.275 21.8057 155.275 18.8361V9.18698C155.275 6.21733 153.711 4.52039 150.849 4.52039C147.988 4.52039 146.424 6.21733 146.424 9.18698V18.8361Z" fill="#387C43"/>
<path fill-rule="evenodd" clip-rule="evenodd" d="M93.1083 28.9301H91.3266L90.5521 32.6337L90.1476 35.1484L89.6211 32.6185L88.6902 28.9301H87L89.3579 37.2642L89.3426 37.3554C89.2014 38.1417 88.7055 38.2974 87.8394 38.2366V39.7485C90.2125 39.9042 90.8764 38.9318 91.2808 36.9869L93.1083 28.9301ZM96.3323 28.9301H93.8218V39.7333H95.5272V35.6726H96.3323C98.0377 35.6726 98.8733 34.7305 98.8733 33.0022V31.5967C98.8771 29.8722 98.0377 28.9301 96.3323 28.9301ZM96.3323 30.4723C96.8741 30.4723 97.1678 30.7192 97.1678 31.4904V33.1123C97.1678 33.8835 96.8741 34.1304 96.3323 34.1304H95.5272V30.4723H96.3323ZM103.448 28.9301H100.953L99.2167 39.7333H100.781L101.075 37.7732H103.169L103.463 39.7333H105.184L103.448 28.9301ZM102.116 30.8446L102.937 36.307H101.292L102.116 30.8446ZM105.497 39.7485H105.76C107.465 39.7485 108.179 38.9774 108.24 37.0021L108.427 30.4723H109.915V39.7333H111.651V28.9301H106.828L106.55 37.0933C106.519 38.0961 106.271 38.2062 105.497 38.2062V39.7485Z" fill="#979897"/>
<rect x="117" y="33.9999" width="38" height="1" fill="#979897"/>
<rect x="43" y="33.9999" width="38" height="1" fill="#979897"/>
<path fill-rule="evenodd" clip-rule="evenodd" d="M19.0854 39.7588C9.99257 39.0145 2.845 31.4104 2.845 22.1389C2.845 12.8674 9.99257 5.26337 19.0854 4.51909L19.0854 10.4148L19.0854 4.52019C10.738 5.4511 3.54947 12.8685 3.54947 22.14C3.54947 31.4115 10.5234 38.1531 19.0854 39.084L19.0854 39.7588ZM19.0854 38.406C2.751 34.4682 2.87818 12.7172 19.0854 10.9548C14.5943 11.5368 10.9315 14.7524 9.7006 18.9995C9.7006 18.9995 9.12068 20.2128 9.12068 22.0586C9.12068 23.9044 9.71941 25.3424 9.71941 25.3424C10.968 29.5575 14.6164 32.7444 19.0854 33.323L19.0854 38.406Z" fill="#B7B7B7"/>
<path fill-rule="evenodd" clip-rule="evenodd" d="M21.8986 4.50407C30.9914 5.24836 38.139 12.8524 38.139 22.1239C38.139 31.3954 30.9914 38.9994 21.8986 39.7437V33.848V39.7426C30.246 38.8117 37.4345 31.3943 37.4345 22.1228C37.4345 12.8513 30.4606 6.10969 21.8986 5.17879V4.50407ZM21.8986 5.85681C38.233 9.79466 38.1058 31.5456 21.8986 33.308C26.3897 32.726 30.0525 29.5104 31.2834 25.2633H21.9063V18.9204H31.2646C30.016 14.7054 26.3676 11.5184 21.8986 10.9398V5.85681Z" fill="#B7B7B7"/>
</svg>
