<svg width="52" height="52" viewBox="0 0 52 52" fill="none" xmlns="http://www.w3.org/2000/svg">
<rect width="52" height="52" rx="4" fill="#F3AA3C"/>
<g clip-path="url(#clip0_831_6527)">
<path d="M38.1875 18.5H37.471C35.9014 13.7848 31.8055 11 26 11C20.1945 11 16.0986 13.7848 14.529 18.5H13.8125C12.777 18.5 11.9375 19.3395 11.9375 20.375V26C11.9375 27.0355 12.777 27.875 13.8125 27.875H14.3526C15.8699 34.6737 20.4273 41 26 41C31.5727 41 36.1301 34.6737 37.6474 27.875H38.1875C39.223 27.875 40.0625 27.0355 40.0625 26V20.375C40.0625 19.3395 39.223 18.5 38.1875 18.5ZM32.5625 26.9375H19.4375V19.4375H32.5625V26.9375Z" fill="white"/>
<path d="M27.875 20.375H26L22.25 26H24.125L27.875 20.375Z" fill="white"/>
<path d="M27.875 26L31.625 20.375H29.75L26 26H27.875Z" fill="white"/>
</g>
<defs>
<clipPath id="clip0_831_6527">
<rect width="30" height="30" fill="white" transform="translate(11 11)"/>
</clipPath>
</defs>
</svg>
