<svg width="52" height="52" viewBox="0 0 52 52" fill="none" xmlns="http://www.w3.org/2000/svg">
<rect width="52" height="52" rx="4" fill="#F3AA3C"/>
<g clip-path="url(#clip0_831_6414)">
<path d="M32.7331 27.5577C32.4793 28.0338 32.0116 28.3269 31.5023 28.3269H20.4946C19.9877 28.3269 19.5185 28.0338 19.2646 27.5577C19.0108 27.0831 19.0108 26.4954 19.2646 26.0192L22.0169 20.8562C22.27 20.38 22.7385 20.0869 23.2469 20.0869H28.7493C29.2562 20.0869 29.7254 20.38 29.9793 20.8562L32.7316 26.0192C32.9869 26.4969 32.9869 27.0831 32.7331 27.5577ZM24.6562 35.4423L21.9046 30.28C21.6508 29.8038 21.1823 29.5108 20.6746 29.5108H15.1716C14.6646 29.5108 14.1954 29.8038 13.9423 30.28L11.19 35.4423C10.9362 35.9185 10.9362 36.5062 11.19 36.9808C11.4439 37.4569 11.9116 37.75 12.42 37.75H23.4262C23.9331 37.75 24.4031 37.4569 24.6562 36.9808C24.91 36.5062 24.91 35.92 24.6562 35.4423ZM40.8093 35.4423L38.0569 30.28C37.8031 29.8038 37.3354 29.5108 36.8277 29.5108H31.3246C30.8177 29.5108 30.3477 29.8038 30.0946 30.28L27.3431 35.4423C27.0893 35.9185 27.0893 36.5062 27.3431 36.9808C27.5962 37.4569 28.0646 37.75 28.5723 37.75H39.5793C40.0869 37.75 40.5569 37.4569 40.81 36.9808C41.0639 36.5062 41.0639 35.92 40.8093 35.4423ZM35.7054 20.5908L35.2139 22.8938L32.9093 23.3846L35.2139 23.8746L35.7054 26.1777L36.1962 23.8746L38.5008 23.3846L36.1962 22.8938L35.7054 20.5908ZM17.8369 17.9038L17.3462 20.2062L15.0416 20.6969L17.3462 21.1869L17.8369 23.49L18.3277 21.1869L20.6323 20.6969L18.3277 20.2062L17.8369 17.9038ZM29.5685 14.25L29.0769 16.5523L26.7723 17.0431L29.0769 17.5338L29.5685 19.8369L30.0593 17.5338L32.3639 17.0438L30.0593 16.5531L29.5685 14.25Z" fill="white"/>
</g>
<defs>
<clipPath id="clip0_831_6414">
<rect width="30" height="30" fill="white" transform="translate(11 11)"/>
</clipPath>
</defs>
</svg>
