<svg width="52" height="52" viewBox="0 0 52 52" fill="none" xmlns="http://www.w3.org/2000/svg">
<rect width="52" height="52" rx="4" fill="#F3AA3C"/>
<g clip-path="url(#clip0_831_6458)">
<g clip-path="url(#clip1_831_6458)">
<path d="M40.3788 24.6202C40.1825 23.1064 38.6063 22.0702 37.0975 22.6352C36.5325 22.8489 35.8525 22.5314 35.5975 21.9614C35.2925 21.2814 34.9188 20.6302 34.4838 20.0252C34.0963 19.4864 34.17 18.7814 34.6513 18.3839C35.2263 17.9114 35.5475 17.2127 35.5325 16.4689C35.5175 15.7126 35.1613 15.0164 34.555 14.5564C33.5575 13.8014 32.47 13.1727 31.3213 12.6889C31.0113 12.5589 30.6863 12.4927 30.355 12.4927C29.1575 12.4927 28.1475 13.3439 27.9525 14.5164C27.85 15.1327 27.2663 15.5514 26.6088 15.4802C25.8787 15.4027 25.1188 15.4027 24.39 15.4802C23.735 15.5514 23.1488 15.1327 23.0463 14.5164C22.8513 13.3439 21.8413 12.4927 20.6437 12.4927C20.3125 12.4927 19.9875 12.5589 19.6788 12.6889C18.5288 13.1727 17.4413 13.8001 16.4438 14.5564C15.8388 15.0164 15.4825 15.7126 15.4675 16.4677C15.4525 17.2127 15.7738 17.9102 16.3488 18.3852C16.8313 18.7814 16.9025 19.4864 16.5163 20.0239C16.0813 20.6289 15.7063 21.2802 15.4013 21.9601C15.1463 22.5301 14.5163 22.8651 13.8875 22.6289C13.6126 22.5264 13.3263 22.4739 13.0363 22.4739C11.8163 22.4739 10.7788 23.3964 10.6201 24.6201C10.5412 25.2402 10.5 25.8739 10.5 26.5002C10.5 27.1264 10.5412 27.7602 10.6212 28.3801C10.8162 29.8926 12.3912 30.9289 13.9025 30.3651C14.4662 30.1514 15.1475 30.4689 15.4025 31.0389C15.7075 31.7189 16.0812 32.3701 16.5162 32.9751C16.9037 33.5139 16.83 34.2189 16.3487 34.6164C15.7737 35.0889 15.4525 35.7876 15.4675 36.5314C15.4825 37.2877 15.8387 37.9839 16.445 38.4439C17.4425 39.1989 18.53 39.8277 19.6787 40.3114C19.9887 40.4414 20.3137 40.5076 20.645 40.5076C21.8425 40.5076 22.8525 39.6564 23.0475 38.4839C23.15 37.8676 23.735 37.4551 24.3912 37.5201C25.12 37.5976 25.88 37.5976 26.61 37.5201C27.2675 37.4539 27.8513 37.8676 27.9537 38.4839C28.1487 39.6564 29.1587 40.5064 30.3563 40.5076C30.6875 40.5076 31.0125 40.4414 31.3212 40.3114C32.47 39.8277 33.5588 39.2002 34.555 38.4439C35.1599 37.9839 35.5175 37.2877 35.5325 36.5326C35.5475 35.7876 35.2262 35.0901 34.6512 34.6152C34.1687 34.2189 34.0975 33.5139 34.4837 32.9764C34.9187 32.3714 35.2937 31.7202 35.5987 31.0402C35.8537 30.4689 36.4849 30.1352 37.1125 30.3714C37.3874 30.4752 37.6737 30.5277 37.9637 30.5277C39.1837 30.5277 40.2212 29.6052 40.3799 28.3815C40.4587 27.7539 40.5 27.1227 40.5 26.5002C40.5 25.8777 40.4587 25.2464 40.3788 24.6202ZM25.5 31.5001C22.7425 31.5001 20.5 29.2576 20.5 26.5002C20.5 23.7427 22.7425 21.5002 25.5 21.5002C28.2575 21.5002 30.5 23.7427 30.5 26.5002C30.5 29.2576 28.2575 31.5001 25.5 31.5001Z" fill="white"/>
</g>
</g>
<defs>
<clipPath id="clip0_831_6458">
<rect width="30" height="30" fill="white" transform="translate(11 11)"/>
</clipPath>
<clipPath id="clip1_831_6458">
<rect width="30" height="30" fill="white" transform="translate(10.5 11.5)"/>
</clipPath>
</defs>
</svg>
